<svg width="24" height="25" viewBox="0 0 24 25" fill="none" xmlns="http://www.w3.org/2000/svg">
<path d="M12 0C5.37 0 0 5.73524 0 12.8162C0 18.4873 3.435 23.2774 8.20499 24.9755C8.80499 25.0877 9.02999 24.7032 9.02999 24.3667C9.02999 24.0624 9.01499 23.0531 9.01499 21.9797C5.99999 22.5725 5.22 21.1947 4.98 20.4738C4.845 20.1054 4.26 18.9679 3.75 18.6636C3.33 18.4232 2.73 17.8305 3.735 17.8145C4.68 17.7985 5.355 18.7437 5.57999 19.1281C6.65999 21.0666 8.38499 20.5219 9.07499 20.1855C9.17999 19.3524 9.49499 18.7917 9.84001 18.4713C7.16999 18.1509 4.38 17.0455 4.38 12.1433C4.38 10.7496 4.845 9.59611 5.60999 8.69898C5.48999 8.37857 5.07 7.06492 5.72999 5.30269C5.72999 5.30269 6.73499 4.96627 9.02999 6.61635C9.99001 6.32799 11.01 6.1838 12.03 6.1838C13.05 6.1838 14.07 6.32799 15.03 6.61635C17.325 4.95025 18.33 5.30269 18.33 5.30269C18.99 7.06492 18.57 8.37857 18.45 8.69898C19.215 9.59611 19.68 10.7335 19.68 12.1433C19.68 17.0615 16.875 18.1509 14.205 18.4713C14.64 18.8718 15.015 19.6408 15.015 20.8423C15.015 22.5565 15 23.9342 15 24.3667C15 24.7032 15.225 25.1037 15.825 24.9755C20.7096 23.2143 23.9987 18.3224 24 12.8162C24 5.73524 18.63 0 12 0Z" fill="#6042AE"/>
</svg>
