<svg width="25" height="25" viewBox="0 0 25 25" fill="none" xmlns="http://www.w3.org/2000/svg">
<path d="M21.2989 21.3042H17.5968V15.5031C17.5968 14.1197 17.5688 12.3396 15.6676 12.3396C13.7375 12.3396 13.4427 13.8449 13.4427 15.401V21.3042H9.74057V9.375H13.2968V11.001H13.3447C13.8417 10.0635 15.05 9.07396 16.8551 9.07396C20.6063 9.07396 21.3 11.5428 21.3 14.7562L21.2989 21.3042ZM5.55937 7.74271C4.3677 7.74271 3.41041 6.77813 3.41041 5.59167C3.41041 4.40625 4.36875 3.44271 5.55937 3.44271C6.74687 3.44271 7.70937 4.40625 7.70937 5.59167C7.70937 6.77813 6.74583 7.74271 5.55937 7.74271ZM7.41562 21.3042H3.70312V9.375H7.41562V21.3042ZM23.151 0H1.84479C0.824999 0 0 0.80625 0 1.80104V23.199C0 24.1947 0.824999 25 1.84479 25H23.1479C24.1667 25 25 24.1947 25 23.199V1.80104C25 0.80625 24.1667 0 23.1479 0H23.151Z" fill="#6042AE"/>
</svg>
